<?xml version="1.0" encoding="utf-8"?>
<!-- Generator: Adobe Illustrator 21.1.0, SVG Export Plug-In . SVG Version: 6.00 Build 0)  -->
<svg version="1.1" id="Capa_1" xmlns="http://www.w3.org/2000/svg" xmlns:xlink="http://www.w3.org/1999/xlink" x="0px" y="0px"
	 viewBox="0 0 289.4 82.4" style="enable-background:new 0 0 289.4 82.4;" xml:space="preserve">
<style type="text/css">
	.st0{fill:#FFFFFF;}
	.st1{fill:#F5CD16;}
	.st2{fill:none;}
</style>
<title>Recurso 1</title>
<g id="Capa_2">
	<g id="Capa_1-2">
		<path class="st0" d="M18.8,5.1l-4.8,0l0-1.6l11.7,0.1l0,1.6l-4.8,0l-0.1,13.6l-2.1,0L18.8,5.1z"/>
		<path class="st0" d="M26.3,11.2c0-1.3,0-2.4-0.1-3.4l1.8,0l0.1,2.2l0.1,0c0.4-1.4,1.7-2.4,3.2-2.4c0.2,0,0.4,0,0.6,0.1l0,1.9
			c-0.2,0-0.5-0.1-0.7-0.1c-1.4,0-2.6,1.1-2.8,2.5c-0.1,0.3-0.1,0.6-0.1,0.9l0,5.8l-2,0L26.3,11.2z"/>
		<path class="st0" d="M40.1,18.8L40,17.4l-0.1,0c-0.8,1.1-2.1,1.7-3.5,1.6c-1.7,0.2-3.3-1.1-3.4-2.9c0-0.1,0-0.2,0-0.3
			c0-2.6,2.5-4.1,6.8-4l0-0.3c0.2-1.3-0.7-2.4-2-2.6c-0.2,0-0.4,0-0.6,0c-1.1,0-2.1,0.3-3,0.8l-0.4-1.3c1.1-0.7,2.4-1,3.7-1
			c3.5,0,4.3,2.3,4.3,4.5l0,4.1c0,0.9,0,1.8,0.2,2.6L40.1,18.8z M39.9,13.2c-2.3,0-4.8,0.3-4.8,2.4c-0.1,1,0.7,1.8,1.7,1.9
			c0.1,0,0.2,0,0.2,0c1.2,0.1,2.3-0.7,2.8-1.8c0.1-0.2,0.1-0.4,0.1-0.6L39.9,13.2z"/>
		<path class="st0" d="M45.2,10.8c0-1.1,0-2.1-0.1-3l1.8,0l0.1,1.8l0,0c0.8-1.3,2.3-2.1,3.8-2c1.6,0,4,0.9,4,4.7l0,6.5l-2.1,0l0-6.3
			c0-1.8-0.7-3.2-2.6-3.3c-1.3,0-2.4,0.8-2.8,2c-0.1,0.3-0.1,0.6-0.1,0.9l0,6.6l-2.1,0L45.2,10.8z"/>
		<path class="st0" d="M57.9,16.8c0.8,0.5,1.8,0.8,2.7,0.8c1.5,0,2.2-0.7,2.2-1.6c0-0.9-0.6-1.5-2.1-2c-2-0.7-3-1.8-3-3.1
			c0-1.8,1.5-3.3,3.9-3.3c1,0,1.9,0.2,2.8,0.7l-0.5,1.5c-0.7-0.4-1.5-0.6-2.3-0.7c-1.2,0-1.9,0.7-1.9,1.5c0,0.8,0.7,1.3,2.1,1.9
			c2,0.7,3,1.7,3,3.3c0,1.9-1.6,3.3-4.3,3.3c-1.1,0-2.2-0.3-3.2-0.8L57.9,16.8z"/>
		<path class="st0" d="M67.5,11.5c0-1.4,0-2.5-0.1-3.6l1.8,0l0.1,1.9l0.1,0c0.9-1.4,2.4-2.2,4-2.1c2.7,0,4.8,2.3,4.8,5.6
			c0,3.9-2.5,5.9-5.2,5.9c-1.4,0.1-2.7-0.6-3.5-1.7l0,0l0,6l-2,0L67.5,11.5z M69.5,14.4c0,0.3,0,0.5,0.1,0.8
			c0.4,1.4,1.6,2.4,3.1,2.4c2.2,0,3.5-1.7,3.5-4.2c0-2.2-1.2-4.1-3.4-4.1c-1.5,0-2.8,1-3.1,2.5c-0.1,0.3-0.1,0.5-0.1,0.8L69.5,14.4z
			"/>
		<path class="st0" d="M91.1,13.4c0.2,3-2.1,5.6-5.1,5.8c-0.2,0-0.4,0-0.6,0c-2.9,0.1-5.4-2.2-5.4-5.2c0-0.2,0-0.3,0-0.5
			c-0.2-3,2.1-5.6,5-5.8c0.2,0,0.4,0,0.6,0c2.9-0.1,5.3,2.2,5.4,5.1C91.1,13,91.1,13.2,91.1,13.4z M82.1,13.5c0,2.4,1.4,4.2,3.4,4.2
			S89,16,89,13.5c0-1.9-1-4.2-3.4-4.2C83.2,9.2,82.1,11.4,82.1,13.5L82.1,13.5z"/>
		<path class="st0" d="M93.7,11.5c0-1.3,0-2.4-0.1-3.4l1.8,0l0.1,2.2l0.1,0c0.4-1.4,1.7-2.4,3.2-2.4c0.2,0,0.4,0,0.6,0.1l0,1.9
			c-0.2,0-0.5-0.1-0.7-0.1c-1.4,0-2.6,1.1-2.8,2.5c-0.1,0.3-0.1,0.6-0.1,0.9l0,5.8l-2,0L93.7,11.5z"/>
		<path class="st0" d="M104.5,4.9l0,3.1l3,0l0,1.5l-3,0l0,5.9c0,1.4,0.4,2.1,1.5,2.1c0.4,0,0.8,0,1.2-0.1l0.1,1.5
			c-0.6,0.2-1.2,0.3-1.8,0.3c-0.8,0-1.6-0.3-2.2-0.8c-0.6-0.8-0.9-1.8-0.8-2.9l0-6l-1.8,0l0-1.5l1.8,0l0-2.6L104.5,4.9z"/>
		<path class="st0" d="M110.7,14c-0.1,2,1.4,3.7,3.3,3.8c0.2,0,0.4,0,0.6,0c1.1,0,2.1-0.1,3.1-0.5l0.3,1.4c-1.2,0.5-2.5,0.7-3.8,0.7
			c-2.9,0.2-5.3-1.9-5.6-4.8c0-0.3,0-0.5,0-0.8c0-3.3,2-5.9,5.4-5.9c3.7,0,4.7,3.2,4.7,5.2c0,0.3,0,0.6-0.1,0.9L110.7,14z
			 M116.8,12.6c0-1.3-0.5-3.2-2.8-3.3c-1.7,0.1-3.1,1.5-3.2,3.2L116.8,12.6z"/>
		<path class="st0" d="M121.1,17.1c0.8,0.5,1.8,0.8,2.7,0.8c1.5,0,2.2-0.7,2.2-1.6c0-0.9-0.6-1.5-2.1-2c-2-0.7-3-1.8-3-3.1
			c0-1.8,1.5-3.2,3.9-3.2c1,0,1.9,0.2,2.8,0.7l-0.5,1.4c-0.7-0.4-1.5-0.6-2.3-0.7c-1.2,0-1.9,0.7-1.9,1.5c0,0.8,0.7,1.3,2.2,1.9
			c2,0.7,3,1.7,3,3.3c0,1.9-1.6,3.3-4.3,3.3c-1.1,0-2.2-0.3-3.2-0.8L121.1,17.1z"/>
		<path class="st1" d="M15.4,78.1c-4.2,0.2-8.1-1.9-10.2-5.5C3,69.1,4.4,66.6,5,61.7c0.4-3.3,1.4-7.7,1.7-9.5
			c0.9-5.2,0.5-6.2,2-11.5c1.2-4.4,2.9-7.7,6.1-9.9S21.6,28,25.2,28c3.9,0,7.9,1.3,9.9,3.6s3,4.5,3,8.8c0,1.8-0.2,3.6-0.4,5.4
			L26,45.8l0.2-1.3c0.1-0.8,0.2-1.6,0.2-2.4c0-1.7,0.3-3.4-0.4-4.4c-1.7-2.2-4.3-0.8-5.4,2.9c-0.9,3.1-1.2,7.8-2,12.4
			c-0.7,3.8-1.2,7.6-1.5,11.4c0,4.1,3.6,3.6,4.9,2c1.3-1.6,1.5-5.6,2.2-9l11,0L35.2,58c-0.6,3.5-0.7,8.8-2.6,11.9
			c-1.8,2.7-4.2,5-7,6.6C23,78,18.3,78.1,15.4,78.1z"/>
		<path class="st1" d="M36.7,78.2l8.7-49.4l11.8,0.1c2.5,0,4.9,0.1,7.4,0.3c3.6,0.5,5.7,1.8,7.2,4c1.2,1.7,1.4,4.7,1.1,7.7
			c-0.1,0.9-0.4,4.1-2,6c-1.7,2-3.9,3.6-6.4,4.6c0,0,3.4,1.3,3.9,3.7c0.4,1.8-0.7,6.3-1.2,9.5c-0.2,1-2,13.6-2,13.6l-10.9,0
			c0.8-7.8,2.6-15.6,2.9-18.6c0.3-3-1-3.6-1-3.6l-4.2,0.1l-4,22L36.7,78.2z M53.4,47.5l2.6,0c3.9-0.1,4.6-2.2,5-6
			c0.4-3.8-1.2-4.2-4-4.2l-2,0.1L53.4,47.5z"/>
		<path class="st1" d="M74.2,51.1c0.7-4,3.1-13.8,5-16c1.9-2.2,4.2-4.1,6.8-5.4c2.4-1.1,5.1-1.7,7.7-1.7c2.7-0.1,5.4,0.6,7.7,2
			c2,1.2,3.5,3.2,4,5.5c1,3.5-1.1,14.7-1.7,17.8c-0.9,5.3-2.6,14.5-7.1,20c-2.2,2.7-8.1,5.3-11.8,5.3c-2.7,0.1-5.3-0.6-7.6-2
			c-2.2-1.5-3.8-3.6-4.8-6C71.2,68.1,73.7,53.8,74.2,51.1z M85.3,53.4c-0.7,4-1.3,6.8-1.8,9.7c-0.9,4.5,0.3,5.6,2.7,5.6
			c2,0,3.5-1.7,4.2-4.6c1.2-5.3,1.2-5.3,2.2-10.7c0.7-4,1.4-6.9,1.8-9.7c0.9-5.2,0-6.9-2.4-6.9c-1.9,0-3.3,1.3-4.2,4.2
			C86.8,45.1,85.9,49.2,85.3,53.4z"/>
		<path class="st1" d="M153.9,51.5c0.7-4,3.1-13.8,5-16c1.9-2.2,4.2-4.1,6.8-5.4c2.4-1.1,5.1-1.7,7.7-1.7c2.7-0.1,5.4,0.6,7.7,2
			c2,1.2,3.5,3.2,4,5.5c1,3.5-1.2,14.7-1.7,17.8c-0.9,5.3-2.6,14.5-7.1,20c-2.2,2.7-8.1,5.3-11.8,5.3c-2.7,0.1-5.3-0.6-7.6-2
			c-2.2-1.5-3.8-3.6-4.8-6C150.9,68.4,153.4,54.1,153.9,51.5z M165,53.7c-0.7,4-1.3,6.8-1.9,9.7c-0.9,4.5,0.4,5.6,2.7,5.6
			c2,0,3.6-1.7,4.2-4.6c1.2-5.3,1.2-5.3,2.2-10.7c0.7-4,1.4-6.9,1.8-9.7c0.9-5.2,0-6.9-2.4-6.9c-2,0-3.3,1.3-4.2,4.2
			C166.5,45.4,165.6,49.6,165,53.7L165,53.7z"/>
		<path class="st1" d="M103.8,78.2l8.7-48.7l17.3,0.1L129.4,54l7.4-24.5l17.4,0.1l-8.7,48.7l-11.3-0.1l5.7-32.3l-12.5,32.3l-6.9,0
			l0.5-32.3l-5.7,32.3L103.8,78.2z"/>
		<path class="st1" d="M188.6,78.8l7-39.7l-6.4,0l1.7-9.3l26.2,0.1l-1.7,9.3l-8,0l-7,39.7L188.6,78.8z"/>
		<path class="st1" d="M210.6,78.9l8.7-48.8l26.7,0.1l-1.7,9.3l-13.7-0.1l-1.7,10l10.1,0l-1.7,9.6l-10.5,0l-1.9,9l13.6,0.1L236.8,79
			L210.6,78.9z"/>
		<path class="st1" d="M239,79l15.4-26.2l-6-22.6l12.4,0.1l1.9,13.2l6.7-13.2l11.8,0.1l-13,22.4l5.4,26.3l-11.3-0.1l-3.2-16.6
			l-8.8,16.5L239,79z"/>
		
			<rect x="103.5" y="-103.5" transform="matrix(4.473879e-03 -1 1 4.473879e-03 102.868 185.7392)" class="st2" width="82.4" height="289.4"/>
	</g>
</g>
</svg>
